<svg width="80" height="80" viewBox="0 0 80 80" fill="none" xmlns="http://www.w3.org/2000/svg">
<g clip-path="url(#clip0)">
<path d="M40.0007 80C39.6031 80 39.2072 79.993 38.8118 79.9815L46.9867 57.5152H58.2367C60.2113 57.5152 62.3789 55.9972 63.0542 54.1426L71.9228 29.7822C73.3739 25.7939 71.0894 22.5309 66.8455 22.5309H51.2381L38.1433 58.5154H38.1383L30.7142 78.9141C13.1015 74.727 0.000732422 58.8941 0.000732422 40C0.000732422 21.6509 12.3563 6.18889 29.2013 1.47667L21.5411 22.5309H21.5389L8.80444 57.5152L17.2817 57.5159L28.1113 27.7881H34.4826L23.653 57.5159L32.127 57.5174L42.2192 29.7822C43.6711 25.7939 41.3865 22.5309 37.1465 22.5309H30.0205L38.2026 0.042037C38.7989 0.0155556 39.3978 0 40.0004 0C62.0918 0 80.0004 17.9085 80.0004 40C80.0004 62.0913 62.0918 80 40.0004 80H40.0007ZM64.2029 27.7667H57.8335L48.9137 52.2404H55.2833L64.2029 27.7667Z" fill="black"/>
</g>
<defs>
<clipPath id="clip0">
<rect width="80" height="80" fill="white"/>
</clipPath>
</defs>
</svg>
