<svg width="30" height="30" viewBox="0 0 30 30" fill="none" xmlns="http://www.w3.org/2000/svg">
<path d="M23.6578 22.3834H22.1129L22.1201 21.4793C22.1201 21.0774 22.4475 20.7487 22.8478 20.7487H22.9463C23.3472 20.7487 23.6756 21.0774 23.6756 21.4793L23.6578 22.3834ZM17.8639 20.4459C17.472 20.4459 17.1515 20.7112 17.1515 21.0361V25.4335C17.1515 25.7577 17.472 26.0225 17.8639 26.0225C18.2573 26.0225 18.5781 25.7577 18.5781 25.4335V21.0361C18.5781 20.7109 18.2573 20.4459 17.8639 20.4459ZM27.2729 17.9861V26.3515C27.2729 28.3581 25.546 30 23.4357 30H7.65584C5.54461 30 3.81836 28.3581 3.81836 26.3515V17.9861C3.81836 15.9795 5.54461 14.3373 7.65584 14.3373H23.4357C25.546 14.3373 27.2729 15.9795 27.2729 17.9861ZM8.70848 27.2598L8.70723 18.4478L10.6633 18.4484V17.1428L5.44892 17.1349V18.4185L7.07667 18.4232V27.2598H8.70848ZM14.5721 19.7604H12.9412V24.4659C12.9412 25.1467 12.9822 25.487 12.9387 25.6071C12.8061 25.9721 12.2101 26.3594 11.9777 25.6465C11.9383 25.5217 11.973 25.1451 11.9724 24.4984L11.9658 19.7604H10.344L10.349 24.4237C10.3503 25.1385 10.3331 25.6717 10.3547 25.9141C10.3944 26.3417 10.3803 26.8406 10.774 27.1252C11.5077 27.6581 12.914 27.0458 13.2659 26.2844L13.2627 27.256L14.5724 27.2576V19.7604H14.5721ZM19.7893 25.1489L19.7859 21.2325C19.7847 19.7399 18.6767 18.8458 17.1724 20.0535L17.179 17.1418L15.5497 17.1443L15.5419 27.1945L16.8813 27.1747L17.0033 26.5488C18.7157 28.1318 19.7918 27.0473 19.7893 25.1489ZM24.8934 24.6298L23.6703 24.6364C23.6697 24.6853 23.6681 24.7417 23.6675 24.8032V25.4908C23.6675 25.8586 23.3657 26.1583 22.9992 26.1583H22.7596C22.3925 26.1583 22.091 25.8586 22.091 25.4908V25.4145V24.6582V23.6822H24.8912V22.6201C24.8912 21.8439 24.8715 21.068 24.8077 20.6242C24.6075 19.2206 22.6524 18.9977 21.6648 19.7163C21.3545 19.9407 21.1178 20.241 20.9802 20.6447C20.841 21.0484 20.7722 21.6 20.7722 22.3005V24.6355C20.7726 28.5175 25.4516 27.9689 24.8934 24.6298ZM18.6207 11.9519C18.7048 12.158 18.8355 12.325 19.0128 12.4511C19.188 12.5753 19.4122 12.6377 19.6802 12.6377C19.9154 12.6377 20.1236 12.5737 20.305 12.4417C20.4858 12.3102 20.6381 12.1139 20.7622 11.852L20.7316 12.4968H22.5495V4.70594H21.1184V10.7695C21.1184 11.0978 20.8501 11.3667 20.5221 11.3667C20.1959 11.3667 19.9266 11.0978 19.9266 10.7695V4.70594H18.433V9.96078C18.433 10.6302 18.4449 11.0764 18.4646 11.3027C18.4856 11.5274 18.5366 11.743 18.6207 11.9519ZM13.1117 7.55176C13.1117 6.80391 13.1736 6.21993 13.2965 5.79889C13.4203 5.37942 13.6427 5.04221 13.9648 4.78788C14.286 4.53229 14.6972 4.40434 15.1973 4.40434C15.6179 4.40434 15.9781 4.48754 16.2793 4.65048C16.5817 4.81436 16.8147 5.02708 16.9767 5.2896C17.1415 5.55307 17.2534 5.82379 17.3132 6.1008C17.3742 6.3816 17.4042 6.80517 17.4042 7.37654V9.34686C17.4042 10.0695 17.3754 10.6012 17.3197 10.9387C17.2644 11.2772 17.1455 11.5911 16.9617 11.8854C16.78 12.1766 16.5457 12.3944 16.2618 12.5334C15.9747 12.6736 15.6463 12.7423 15.2754 12.7423C14.8611 12.7423 14.5121 12.6846 14.2244 12.5642C13.9357 12.4445 13.7127 12.2639 13.5539 12.0241C13.3934 11.7839 13.2806 11.4915 13.2124 11.1505C13.1439 10.8098 13.1114 10.2974 13.1114 9.61443V7.55176H13.1117ZM14.5355 10.6465C14.5355 11.0878 14.8614 11.448 15.2582 11.448C15.6554 11.448 15.9797 11.0878 15.9797 10.6465V6.49916C15.9797 6.05857 15.6554 5.69836 15.2582 5.69836C14.8614 5.69836 14.5355 6.05857 14.5355 6.49916V10.6465ZM9.50437 12.7407H11.2194L11.2212 6.76546L13.2477 1.64677H11.372L10.2946 5.44876L9.20196 1.63637H7.34561L9.50155 6.7683L9.50437 12.7407Z" fill="black"/>
</svg>
